Love for All and Sharing is the first step to solving all the problems of humanity.

Website I want to share. 
               
   http://www.scenetime.com
 
 
  Credit to EVERYONE for sharing and seeding back
 especially to SCENETIME.COM where i get all my 
 downloads.


 support www.scenetime.com to grow faster.

 
 The world is ONE big family.	                                
                                                            
                                                   

.                 ..................................NFO:....................................*******************************************************************************
                  Meteor.Storm.2010.HDTVRip.AC3.X264-BARC0DE
*******************************************************************************

-------------------------------------------------------------------------------
                              General Information
-------------------------------------------------------------------------------
Type.................: Movie
Name.................: Meteor Storm
Movie Information....: http://www.imdb.com/title/tt1589487/
Genre................: Sci-Fi

-------------------------------------------------------------------------------
                                    PLOT
-------------------------------------------------------------------------------
San Francisco becomes a target for waves of destructive meteors after a rogue comet 
orbits around the earth... For astronomer, Michelle Young, what was meant to be a 
once-in-a-lifetime celestial event, soon turns into her worst nightmare as thousands 
of meteors break the surface of the atmosphere and bombard the city of San Francisco.

-------------------------------------------------------------------------------
                                    CAST
-------------------------------------------------------------------------------
Michael Trucco	... 	Colonel Tom Young
Kari Matchett	... 	Dr. Michelle Young
Kirsten Prout	... 	Kara
Brett Dier	... 	Jason Young
Eric Johnson	... 	Kyle Pember
Kevin McNulty	... 	Gen. Brock
Lara Gilchrist	... 	Lena
Travis Nelson	... 	Brad
Emily Holmes	... 	Laura
Viv Leacock	... 	Colonel Jack Clancey
Carmen Moore	... 	Harper
Val Cole	... 	Female Newscaster
Jill Morrison	... 	Pregnant Woman

-------------------------------------------------------------------------------
                                    MEDiA iNFO
-------------------------------------------------------------------------------

General
Complete name                    : Meteor.Storm.2010.HDTVRip.AC3.X264-BARC0DE.mkv
Format                           : Matroska
File size                        : 1.45 GiB
Duration                         : 1h 27mn
Overall bit rate                 : 2 382 Kbps


Video
ID                               : 1
Format                           : AVC
Format/Info                      : Advanced Video Codec
Format profile                   : Main@L3.0
Format settings, CABAC           : No
Format settings, ReFrames        : 2 frames
Muxing mode                      : Container profile=Unknown@3.0
Codec ID                         : V_MPEG4/ISO/AVC
Duration                         : 1h 27mn
Bit rate                         : 1 950 Kbps
Nominal bit rate                 : 2 004 Kbps
Width                            : 720 pixels
Height                           : 400 pixels
Display aspect ratio             : 16:9
Frame rate                       : 29.970 fps
Resolution                       : 8 bits
Colorimetry                      : 4:2:0
Scan type                        : Progressive
Bits/(Pixel*Frame)               : 0.226
Stream size                      : 1.19 GiB (82%)
Writing library                  : x264 core 79

Audio
ID                               : 2
Format                           : AC-3
Format/Info                      : Audio Coding 3
Format_Settings_ModeExtension    : CM (complete main)
Codec ID                         : A_AC3
Duration                         : 1h 27mn
Bit rate mode                    : Constant
Bit rate                         : 384 Kbps
Channel(s)                       : 6 channels
Channel positions                : Front: L C R, Side: L R, LFE
Sampling rate                    : 48.0 KHz
Stream size                      : 240 MiB (16%)
Language                         : English